<?xml version="1.0" encoding="utf-8"?>
<!-- Generator: Adobe Illustrator 17.1.0, SVG Export Plug-In . SVG Version: 6.00 Build 0)  -->
<!DOCTYPE svg PUBLIC "-//W3C//DTD SVG 1.1//EN" "http://www.w3.org/Graphics/SVG/1.1/DTD/svg11.dtd">
<svg version="1.1" id="Layer_1" xmlns="http://www.w3.org/2000/svg" xmlns:xlink="http://www.w3.org/1999/xlink" x="0px" y="0px"
	 width="234.9px" height="40px" viewBox="0 0 234.9 40" enable-background="new 0 0 234.9 40" xml:space="preserve">
<path fill="#D58231" d="M34.5,40H5.4c-3,0-5.4-2.4-5.4-5.4V5.4C0,2.4,2.4,0,5.4,0h29.1c3,0,5.4,2.4,5.4,5.4v29.2
	C39.9,37.6,37.5,40,34.5,40"/>
<path fill="#FFFFFF" d="M37.5,17.5c0-3.5-2.8-6.3-6.2-6.3c-3.4,0-6.2,2.8-6.2,6.3c0,2.3,1.2,4.3,2.9,5.4l-2.8,4.9l-2.8,5l-1.4-2.4
	c1.4-0.7,2.4-2.2,2.4-3.9c0-2.4-1.9-4.4-4.3-4.4c-2.4,0-4.3,2-4.3,4.4c0,1.7,1,3.2,2.4,3.9l-1.3,2.3l-1.2,2.1l-2.5-4.3l-1.6-2.8
	c1.7-1,2.8-2.8,2.8-4.9c0-3.2-2.5-5.8-5.7-5.8c-3.1,0-5.7,2.6-5.7,5.8c0,2.1,1.1,3.9,2.8,4.9l-2.5,4.2l0,1.1c0,0-0.2,2.5,1.4,3.7
	c0,0,0.8,0.8,1.8,1c0.9,0.2,2.2,0.1,2.2,0.1h4.9h4.1h2.4h6.5h6.3c0,0,2,0.1,3-0.3c0.6-0.3,1.4-1,1.8-1.8c0.5-0.8,0.6-2.1,0.6-2.1
	l0-5.8l-2.9-5C36.4,21.7,37.5,19.7,37.5,17.5"/>
<path fill="#262626" d="M49.1,37.4V2.8h4.3v12.4c2-2.3,4.5-3.5,7.5-3.5c1.9,0,3.5,0.4,4.8,1.1c1.4,0.7,2.3,1.7,2.9,3
	c0.6,1.3,0.9,3.2,0.9,5.6v15.9h-4.3V21.5c0-2.1-0.5-3.7-1.4-4.7c-0.9-1-2.2-1.5-3.9-1.5c-1.3,0-2.5,0.3-3.6,1
	c-1.1,0.7-1.9,1.6-2.4,2.7c-0.5,1.1-0.7,2.7-0.7,4.6v13.7H49.1z"/>
<path fill="#262626" d="M92.5,37.4v-3.7c-2,2.8-4.6,4.3-8,4.3c-1.5,0-2.9-0.3-4.2-0.8c-1.3-0.6-2.2-1.3-2.9-2.1
	c-0.6-0.9-1.1-1.9-1.3-3.2c-0.2-0.8-0.3-2.2-0.3-4V12.3h4.3v13.9c0,2.2,0.1,3.7,0.3,4.5c0.3,1.1,0.8,2,1.7,2.6c0.9,0.6,1.9,1,3.2,1
	c1.3,0,2.5-0.3,3.6-1c1.1-0.7,1.9-1.5,2.4-2.7c0.5-1.1,0.7-2.8,0.7-4.9V12.3h4.3v25.1H92.5z"/>
<path fill="#262626" d="M106.9,37.4h-4V2.8h4.3v12.4c1.8-2.3,4.1-3.4,6.9-3.4c1.5,0,3,0.3,4.4,0.9c1.4,0.6,2.5,1.5,3.4,2.6
	c0.9,1.1,1.6,2.5,2.1,4.1c0.5,1.6,0.7,3.3,0.7,5.1c0,4.3-1.1,7.6-3.2,10c-2.1,2.3-4.7,3.5-7.6,3.5c-3,0-5.3-1.2-7-3.7V37.4z
	 M106.8,24.7c0,3,0.4,5.2,1.2,6.5c1.3,2.2,3.2,3.3,5.4,3.3c1.8,0,3.5-0.8,4.8-2.4c1.4-1.6,2-4,2-7.2c0-3.3-0.7-5.7-2-7.3
	c-1.3-1.6-2.9-2.3-4.7-2.3c-1.9,0-3.5,0.8-4.8,2.4C107.5,19.3,106.8,21.6,106.8,24.7"/>
<path fill="#262626" d="M133.8,37.4h-4V2.8h4.3v12.4c1.8-2.3,4.1-3.4,6.9-3.4c1.5,0,3,0.3,4.4,0.9c1.4,0.6,2.5,1.5,3.4,2.6
	c0.9,1.1,1.6,2.5,2.1,4.1c0.5,1.6,0.7,3.3,0.7,5.1c0,4.3-1.1,7.6-3.2,10c-2.1,2.3-4.7,3.5-7.6,3.5c-3,0-5.3-1.2-7-3.7V37.4z
	 M133.7,24.7c0,3,0.4,5.2,1.2,6.5c1.3,2.2,3.2,3.3,5.4,3.3c1.8,0,3.5-0.8,4.8-2.4c1.4-1.6,2-4,2-7.2c0-3.3-0.7-5.7-2-7.3
	c-1.3-1.6-2.9-2.3-4.7-2.3c-1.9,0-3.5,0.8-4.8,2.4C134.4,19.3,133.7,21.6,133.7,24.7"/>
<path fill="#262626" d="M155.1,29.9l4.2-0.7c0.2,1.7,0.9,3,1.9,3.9c1.1,0.9,2.6,1.3,4.5,1.3c2,0,3.4-0.4,4.4-1.2
	c0.9-0.8,1.4-1.7,1.4-2.8c0-0.9-0.4-1.7-1.3-2.3c-0.6-0.4-2-0.8-4.4-1.4c-3.1-0.8-5.3-1.5-6.5-2c-1.2-0.6-2.1-1.4-2.7-2.4
	c-0.6-1-0.9-2.1-0.9-3.3c0-1.1,0.2-2.2,0.8-3.1c0.5-1,1.2-1.8,2.1-2.4c0.7-0.5,1.6-0.9,2.7-1.2c1.1-0.3,2.4-0.5,3.7-0.5
	c2,0,3.7,0.3,5.2,0.9c1.5,0.6,2.6,1.3,3.3,2.3c0.7,1,1.2,2.3,1.5,3.9l-4.2,0.6c-0.2-1.3-0.7-2.3-1.7-3c-0.9-0.7-2.2-1.1-3.8-1.1
	c-2,0-3.4,0.3-4.2,1c-0.8,0.7-1.3,1.4-1.3,2.3c0,0.6,0.2,1.1,0.5,1.5c0.4,0.4,0.9,0.8,1.6,1.1c0.4,0.2,1.7,0.5,3.8,1.1
	c3,0.8,5.1,1.4,6.3,2c1.2,0.5,2.1,1.3,2.8,2.2c0.7,1,1,2.2,1,3.6c0,1.4-0.4,2.7-1.3,4c-0.8,1.3-2,2.2-3.6,2.9c-1.6,0.7-3.3,1-5.3,1
	c-3.3,0-5.7-0.7-7.4-2C156.7,34.6,155.6,32.6,155.1,29.9"/>
<path fill="#262626" d="M190.3,33.6l0.6,3.8c-1.2,0.2-2.3,0.4-3.2,0.4c-1.5,0-2.7-0.2-3.6-0.7c-0.8-0.5-1.4-1.1-1.8-1.9
	c-0.4-0.8-0.5-2.5-0.5-5V15.7h-3.1v-3.3h3.1V6.1l4.2-2.5v8.8h4.3v3.3H186v14.7c0,1.2,0.1,2,0.2,2.4c0.2,0.3,0.4,0.6,0.7,0.8
	c0.3,0.2,0.8,0.3,1.4,0.3C188.9,33.8,189.5,33.7,190.3,33.6"/>
<path fill="#262626" d="M211.6,29.3l4.4,0.6c-0.7,2.6-2,4.5-3.8,6c-1.9,1.4-4.3,2.1-7.2,2.1c-3.7,0-6.6-1.1-8.7-3.4
	c-2.1-2.3-3.2-5.4-3.2-9.5c0-4.2,1.1-7.5,3.3-9.8c2.2-2.3,5-3.5,8.5-3.5c3.3,0,6.1,1.1,8.2,3.4c2.1,2.3,3.2,5.5,3.2,9.6
	c0,0.3,0,0.6,0,1.2h-18.7c0.2,2.8,0.9,4.9,2.3,6.3c1.4,1.5,3.2,2.2,5.3,2.2c1.6,0,2.9-0.4,4-1.2C210.1,32.5,211,31.2,211.6,29.3
	 M197.6,22.5h14c-0.2-2.1-0.7-3.7-1.6-4.8c-1.4-1.7-3.1-2.5-5.3-2.5c-2,0-3.6,0.7-4.9,2C198.5,18.5,197.8,20.3,197.6,22.5"/>
<path fill="#262626" d="M221.3,37.4V12.3h3.8v3.8c1-1.8,1.9-3,2.7-3.5c0.8-0.6,1.7-0.9,2.7-0.9c1.4,0,2.9,0.5,4.4,1.4l-1.4,4
	c-1-0.6-2.1-0.9-3.1-0.9c-0.9,0-1.8,0.3-2.5,0.8c-0.7,0.6-1.3,1.3-1.6,2.3c-0.5,1.5-0.7,3.2-0.7,5v13.1H221.3z"/>
</svg>
